<?xml version="1.0" encoding="UTF-8"?>
<svg version="1.1" viewBox="0 0 250 250" xmlns="http://www.w3.org/2000/svg">
 <defs>
  <radialGradient id="a" cx="14.207" cy="222.04" r="8.2519" gradientTransform="scale(1.3952 .71673)" gradientUnits="userSpaceOnUse">
   <stop offset="0"/>
   <stop stop-opacity="0" offset="1"/>
  </radialGradient>
  <filter id="d" x="-.10899" y="-.21216" width="1.218" height="1.4243" color-interpolation-filters="sRGB">
   <feGaussianBlur stdDeviation="0.72146876"/>
  </filter>
  <filter id="e" x="-.10899" y="-.21216" width="1.218" height="1.4243" color-interpolation-filters="sRGB">
   <feGaussianBlur stdDeviation="0.72146876"/>
  </filter>
 </defs>
 <g transform="translate(0,122)">
  <g transform="matrix(7.7226 0 0 7.7226 -1259.2 -7006.7)" fill="#666" stroke="#000">
   <path transform="matrix(.64615 0 0 1.0039 61.462 295.52)" d="m183.5 598.5 4.3301 7.5 4.3301 7.5h-17.32l4.3301-7.5z" fill="#666" stroke="#000"/>
  </g>
  <path d="m131.36-79.951 21.607 58.145s-7.3824-7.3843-15.252-21.036c-3.4612-6.0037 0.53364 20.553-6.3547 19.795-10.674-1.1746-1.4374-40.382-2.9418-32.082-3.2997 18.205-18.666 33.321-18.666 33.321z" fill="#fff"/>
  <g transform="matrix(9.8737 0 0 9.8737 -1608.5 -8924.1)" fill="#4d4d4d" stroke="#000">
   <path transform="matrix(.64615 0 0 1.0039 61.462 295.52)" d="m183.5 598.5 4.3301 7.5 4.3301 7.5h-17.32l4.3301-7.5z" fill="#4d4d4d" stroke="#000"/>
  </g>
  <g transform="matrix(10.957 0 0 10.957 -1885.2 -9897.5)" fill="#333" stroke="#000">
   <path transform="matrix(.64615 0 0 1.0039 61.462 295.52)" d="m183.5 598.5 4.3301 7.5 4.3301 7.5h-17.32l4.3301-7.5z" fill="#333" stroke="#000"/>
  </g>
  <path d="m169.32-67.949 27.626 74.341s-9.4388-9.4411-19.501-26.895c-4.4253-7.676 0.68228 26.278-8.1248 25.309-13.647-1.5018-1.8378-51.631-3.7613-41.018-4.2188 23.276-23.865 42.603-23.865 42.603z" fill="#fff"/>
  <path d="m87.767-69.409 30.657 82.5s-10.475-10.477-21.641-29.847c-4.911-8.5184 0.75716 29.162-9.0164 28.087-15.141-1.6661-2.035-57.296-4.169-45.519-4.682 25.83-26.484 47.278-26.484 47.278z" fill="#fff"/>
  <path transform="matrix(3.3745 0 0 3.3745 114.61 -452.57)" d="m28.402 158.7a7.9438 4.0807 0 1 1 -15.888 0 7.9438 4.0807 0 1 1 15.888 0z" fill="url(#a)" fill-rule="evenodd" filter="url(#e)" opacity=".5"/>
  <path transform="matrix(3.3745 0 0 3.3745 37.32 -432.2)" d="m28.402 158.7a7.9438 4.0807 0 1 1 -15.888 0 7.9438 4.0807 0 1 1 15.888 0z" fill="url(#a)" fill-rule="evenodd" filter="url(#d)" opacity=".5"/>
  <path d="m170.57-14.947c-0.29021 0.30371 0.6108 1.5523 2.0045 2.7334 1.3937 1.2148 2.5309 2.4297 2.5309 2.7334 0 0.33745 1.252 2.1597 2.7401 4.0157 2.5916 3.2733 2.6963 3.7795 2.5309 11.912-0.0945 4.6906-0.46231 8.5376-0.84364 8.5713-0.37795 0-0.73902-0.47244-0.73902-0.97862s-0.60742-0.94487-1.3701-0.94487c-0.75927 0-1.3701-0.43869-1.3701-0.94487s-0.55005-0.84364-1.2654-0.84364c-0.71541 0-2.3723-1.4173-3.6918-3.0371-1.3194-1.6535-2.8751-3.5095-3.3745-4.1169-0.49944-0.64116-0.84364-1.9235-0.84364-2.9696 0-2.2947-1.7986-2.5984-1.8965-0.30371-0.0405 0.87738-0.31383 3.3408-0.5298 5.3655-0.42857 4.0832 1.2756 8.2001 3.3746 8.3351 0.74577 0.03374 2.4769 0.57367 3.9044 1.1473 1.4274 0.60742 3.1856 1.0799 3.901 1.0799s1.9134 1.1136 2.6355 2.5309c0.72552 1.3836 2.5444 3.4758 4.1136 4.6231s2.9527 2.8009 2.9527 3.6783c0 0.91113 0.47244 2.4972 1.1608 3.5095 1.8088 2.6321 2.8245 20.652 1.1608 20.652-0.68166 0-4.2182-2.8684-7.9099-6.4116-4.3667-4.2519-8.3419-7.2215-11.389-8.4364-7.262-2.9359-7.3903-2.9021-9.0708-8.5714-1.1035-3.712-2.4027-6.1754-4.532-7.9977-3.1012-2.6659-7.3768-3.4083-9.9144-1.7885-2.2812 1.4511 1.1676 3.982 4.4274 3.2733 2.4398-0.53993 2.9089-0.20247 5.0618 3.4758 1.3093 2.2272 2.4263 4.8931 2.4263 5.9055 0 2.5647 5.8211 7.3565 13.076 10.765 1.8796 0.84364 3.604 1.9235 3.901 2.3959 0.81327 1.3161-4.9336 0.03374-8.8548-1.991-3.3476-1.721-3.3476-1.7548-8.7536 0.64116-7.8357 3.442-7.9336 3.577-8.2272 6.3104-0.29358 2.7671 0.99212 3.1383 3.2699 1.0799 0.82001-0.7424 3.9887-2.126 7.0663-3.0708 5.4128-1.6873 5.7266-1.721 8.7502-0.10124 1.721 0.91113 4.2688 1.7548 5.6962 1.7885 3.5871 0.03374 5.406 1.1811 11.389 7.0528l5.1664 5.0618-2.5309 2.126c-2.3521 1.856-2.5613 2.3959-2.1091 6.4116 0.43869 3.8807 0.0911 5.0618-2.7401 9.8199-1.775 2.9696-3.0135 6.0404-2.7435 6.7491 0.53318 1.3836 5.2744 1.0124 5.2744-0.40495 0-0.47244 0.61079-0.87738 1.3701-0.87738 0.75927 0 2.1496-0.87738 3.162-1.8897 2.3251-2.3284 4.2114-2.3284 8.5444 0 1.8898 1.0124 3.6445 1.8897 3.901 1.8897 1.009 0 0.43869-5.0618-0.73903-6.4116-1.7818-2.0585-3.3746-9.145-3.3746-15.185 0-4.8256 0.21935-5.4668 3.6918-8.8751 2.0484-1.991 4.1541-3.6783 4.64-3.6783 0.48593 0 0.94487-0.40494 0.94825-1.0461 0.0101-1.5185 4.2553-3.4758 7.4881-3.4758 1.3903 0 3.9044-0.80989 5.5882-1.8223 6.1316-3.6108 16.569-7.4915 17.716-6.5129 0.60742 0.50618 1.3532 0.64116 1.6873 0.30371 0.97525-0.97862 0.79303-3.847-0.3172-4.2182-1.2047-0.40495-15.989 2.5309-17.504 3.4758-1.5962 0.97862-0.45219-12.992 1.2655-15.489 3.4083-4.9943 12.479-12.655 14.976-12.655 1.4274 0 2.5073-2.8684 1.4747-3.9145-0.92463-0.91113-3.901 0.067491-3.901 1.2823 0 0.43869-0.42182 0.80989-1.0562 0.84364-0.63441 0-2.838 1.4511-4.8492 3.2733-2.0146 1.7885-4.2857 3.847-5.0618 4.4207-0.77615 0.57367-3.2024 2.9359-5.379 5.3655l-4.0056 4.4544 0.63104 5.4668 0.63104 5.4668-4.3228 2.5647c-2.4094 1.3836-6.1822 4.0832-8.3318 6.0067-2.1462 1.8897-4.2081 3.4758-4.532 3.4758-0.32396 0-0.52981-1.9572-0.52981-4.3194 0-2.3959-0.46569-5.568-1.0528-7.1878-1.1237-3.1046-1.0461-3.6445 2.1091-8.7401 1.5995-2.5984 1.9741-4.5894 1.8999-10.022-0.054-3.7457 0.39482-7.829 0.94824-9.1788 0.55343-1.3498 1.0697-2.8684 1.1575-3.3745 0.37458-2.0922 2.7098-6.9516 3.3746-6.9516 0.3982 0 0.73903-0.77614 0.73903-1.7885 0-2.8009-2.3453-2.2272-4.8492 1.1473-2.4466 3.2733-5.2744 10.799-5.2744 14.139 0 1.1473-0.3442 3.9482-0.84363 6.1079s-1.2047 5.0281-1.4747 6.4454c-0.27334 1.3836-0.80652 2.5309-1.2655 2.5309-1.532 0-3.7626-2.8346-3.7964-4.8593-0.0236-1.2486-1.2418-2.7671-3.0573-3.9145l-2.9561-1.8897v-8.7391c0-8.2676-0.13836-9.0438-2.7401-12.756-1.5219-2.1935-3.3037-4.9268-4.009-6.0404-1.3701-2.126-5.6659-4.5556-6.5365-3.6783zm16.556 81.934c0.50618-0.30371 0.95163-0.10124 0.94825 0.43869 0 0.53993-0.44207 1.0461-0.94825 1.0461-1.1811 0-1.1811-0.7424 0-1.4848z" fill="#808080"/>
  <path d="m94.88 7.0258c-0.29021 0.30371 0.6108 1.5523 2.0045 2.7334 1.3937 1.2148 2.5309 2.4297 2.5309 2.7334 0 0.33745 1.252 2.1597 2.7401 4.0157 2.5916 3.2733 2.6963 3.7795 2.5309 11.912-0.0945 4.6906-0.46231 8.5376-0.84363 8.5713-0.37795 0-0.73903-0.47244-0.73903-0.97862s-0.60741-0.94487-1.3701-0.94487c-0.75928 0-1.3701-0.43869-1.3701-0.94487s-0.55005-0.84364-1.2655-0.84364c-0.71541 0-2.3723-1.4173-3.6918-3.0371-1.3194-1.6535-2.8751-3.5095-3.3746-4.1169-0.49943-0.64116-0.84363-1.9235-0.84363-2.9696 0-2.2947-1.7986-2.5984-1.8965-0.30371-0.0405 0.87738-0.31383 3.3408-0.5298 5.3655-0.42857 4.0832 1.2756 8.2001 3.3746 8.3351 0.74577 0.03374 2.4769 0.57367 3.9044 1.1473 1.4274 0.60742 3.1856 1.0799 3.901 1.0799 0.71541 0 1.9134 1.1136 2.6355 2.5309 0.72553 1.3836 2.5444 3.4758 4.1136 4.6231s2.9527 2.8009 2.9527 3.6783c0 0.91113 0.47243 2.4972 1.1608 3.5095 1.8088 2.6321 2.8245 20.652 1.1608 20.652-0.68166 0-4.2182-2.8684-7.91-6.4116-4.3667-4.2519-8.3419-7.2215-11.389-8.4364-7.262-2.9359-7.3903-2.9021-9.0708-8.5714-1.1035-3.712-2.4027-6.1754-4.532-7.9977-3.1012-2.6659-7.3768-3.4083-9.9144-1.7885-2.2812 1.4511 1.1676 3.982 4.4274 3.2733 2.4398-0.53993 2.9089-0.20247 5.0618 3.4758 1.3093 2.2272 2.4263 4.8931 2.4263 5.9055 0 2.5647 5.8211 7.3565 13.076 10.765 1.8796 0.84364 3.604 1.9235 3.901 2.3959 0.81327 1.3161-4.9336 0.03374-8.8548-1.991-3.3476-1.721-3.3476-1.7548-8.7536 0.64116-7.8357 3.442-7.9336 3.577-8.2272 6.3104-0.29359 2.7671 0.99212 3.1383 3.2699 1.0799 0.82002-0.7424 3.9887-2.126 7.0663-3.0708 5.4128-1.6873 5.7266-1.721 8.7502-0.10124 1.721 0.91113 4.2688 1.7548 5.6962 1.7885 3.5872 0.03374 5.406 1.1811 11.389 7.0528l5.1664 5.0618-2.5309 2.126c-2.3521 1.856-2.5613 2.3959-2.1091 6.4116 0.43869 3.8807 0.0911 5.0618-2.7401 9.8199-1.775 2.9696-3.0135 6.0404-2.7435 6.7491 0.53318 1.3836 5.2744 1.0124 5.2744-0.40495 0-0.47244 0.61079-0.87738 1.3701-0.87738 0.75928 0 2.1496-0.87738 3.162-1.8898 2.3251-2.3284 4.2114-2.3284 8.5444 0 1.8898 1.0124 3.6445 1.8898 3.901 1.8898 1.009 0 0.43869-5.0618-0.73903-6.4116-1.7818-2.0585-3.3746-9.145-3.3746-15.185 0-4.8256 0.21935-5.4668 3.6918-8.8751 2.0484-1.991 4.1541-3.6783 4.64-3.6783 0.48593 0 0.94487-0.40494 0.94825-1.0461 0.0101-1.5185 4.2553-3.4758 7.4881-3.4758 1.3903 0 3.9044-0.80989 5.5882-1.8223 6.1316-3.6108 16.569-7.4915 17.716-6.5129 0.60742 0.50618 1.3532 0.64116 1.6873 0.30371 0.97525-0.97862 0.79302-3.847-0.3172-4.2182-1.2047-0.40495-15.989 2.5309-17.504 3.4758-1.5962 0.97862-0.45219-12.992 1.2654-15.489 3.4083-4.9943 12.479-12.655 14.976-12.655 1.4274 0 2.5073-2.8684 1.4747-3.9145-0.92462-0.91113-3.901 0.06749-3.901 1.2823 0 0.43869-0.42182 0.80989-1.0562 0.84364-0.63441 0-2.838 1.4511-4.8492 3.2733-2.0146 1.7885-4.2857 3.847-5.0618 4.4207-0.77615 0.57367-3.2024 2.9359-5.379 5.3655l-4.0056 4.4544 0.63104 5.4668 0.63104 5.4668-4.3228 2.5647c-2.4094 1.3836-6.1822 4.0832-8.3318 6.0067-2.1462 1.8897-4.2081 3.4758-4.532 3.4758-0.32396 0-0.52981-1.9572-0.52981-4.3194 0-2.3959-0.46569-5.568-1.0529-7.1878-1.1237-3.1046-1.0461-3.6445 2.1091-8.7401 1.5995-2.5984 1.9741-4.5894 1.8999-10.022-0.054-3.7457 0.39483-7.829 0.94825-9.1788 0.55343-1.3498 1.0697-2.8684 1.1575-3.3745 0.37458-2.0922 2.7098-6.9516 3.3746-6.9516 0.39819 0 0.73903-0.77614 0.73903-1.7885 0-2.8009-2.3453-2.2272-4.8492 1.1473-2.4466 3.2733-5.2744 10.799-5.2744 14.139 0 1.1473-0.3442 3.9482-0.84364 6.1079-0.49943 2.1597-1.2047 5.0281-1.4747 6.4454-0.27334 1.3836-0.80652 2.5309-1.2655 2.5309-1.532 0-3.7626-2.8346-3.7964-4.8593-0.0236-1.2486-1.2418-2.7671-3.0573-3.9145l-2.9561-1.8897v-8.7401c0-8.2676-0.13836-9.0438-2.7401-12.756-1.5219-2.1935-3.3037-4.9268-4.009-6.0404-1.36-2.1259-5.659-4.5555-6.53-3.6782zm16.56 81.934c0.50618-0.30371 0.95163-0.10124 0.94825 0.43869 0 0.53993-0.44207 1.0461-0.94825 1.0461-1.1811 0-1.1811-0.7424 0-1.4848z" fill="#808080"/>
 </g>
</svg>
