<?xml version="1.0" encoding="UTF-8"?>
<svg enable-background="new 0 0 792 612" version="1.1" viewBox="0 0 792 612" xml:space="preserve" xmlns="http://www.w3.org/2000/svg" xmlns:xlink="http://www.w3.org/1999/xlink">
<style type="text/css">
	.st0{fill:url(#af);}
	.st1{fill:url(#ag);}
	.st2{fill:url(#ah);}
	.st3{fill:url(#ai);}
	.st4{fill:url(#aj);}
	.st5{fill:url(#ak);}
	.st6{fill:url(#al);}
	.st7{fill:url(#am);}
	.st8{display:none;fill:url(#x);}
	.st9{fill:url(#y);}
	.st10{fill:url(#z);}
	.st11{fill:url(#aa);}
	.st12{fill:url(#ab);}
	.st13{fill:url(#ac);}
	.st14{fill:url(#ad);}
	.st15{display:none;fill:url(#u);}
	.st16{display:none;fill:url(#v);}
	.st17{fill:url(#w);}
	.st18{fill:url(#ae);}
	.st19{display:none;fill:url(#SVGID_20_);}
	.st20{fill:url(#SVGID_21_);}
	.st21{fill:url(#SVGID_22_);}
	.st22{fill:#FFFFFF;}
	.st23{fill:url(#SVGID_23_);}
	.st24{fill:url(#SVGID_24_);}
	.st25{fill:url(#SVGID_25_);}
	.st26{fill:url(#SVGID_26_);}
	.st27{fill:url(#SVGID_27_);}
	.st28{fill:url(#SVGID_28_);}
	.st29{fill:url(#SVGID_29_);}
	.st30{fill:url(#SVGID_30_);}
	.st31{fill:url(#SVGID_31_);}
	.st32{fill:url(#SVGID_32_);}
	.st33{fill:url(#SVGID_33_);}
	.st34{fill:url(#SVGID_34_);}
	.st35{fill:url(#SVGID_35_);}
	.st36{fill:url(#SVGID_36_);}
	.st37{fill:url(#SVGID_37_);}
	.st38{fill:url(#SVGID_38_);}
	.st39{fill:url(#SVGID_39_);}
	.st40{display:none;fill:url(#SVGID_40_);}
	.st41{fill:url(#SVGID_41_);}
	.st42{fill:url(#SVGID_42_);}
	.st43{fill:url(#SVGID_43_);}
	.st44{fill:url(#SVGID_44_);}
	.st45{fill:url(#SVGID_45_);}
	.st46{fill:url(#SVGID_46_);}
	.st47{fill:url(#SVGID_47_);}
	.st48{fill:url(#SVGID_48_);}
	.st49{fill:url(#SVGID_49_);}
	.st50{fill:url(#SVGID_50_);}
	.st51{fill:url(#SVGID_51_);}
	.st52{fill:url(#SVGID_52_);}
	.st53{fill:url(#SVGID_53_);}
	.st54{fill:url(#SVGID_54_);}
	.st55{fill:url(#SVGID_55_);}
	.st56{fill:url(#SVGID_56_);}
	.st57{fill:url(#SVGID_57_);}
	.st58{fill:url(#SVGID_58_);}
	.st59{fill:url(#SVGID_59_);}
	.st60{fill:url(#SVGID_60_);}
	.st61{fill:url(#SVGID_61_);}
	.st62{fill:url(#SVGID_62_);}
	.st63{fill:url(#SVGID_63_);}
	.st64{fill:url(#SVGID_64_);}
	.st65{fill:url(#SVGID_65_);}
	.st66{fill:url(#SVGID_66_);}
	.st67{fill:url(#SVGID_67_);}
	.st68{fill:url(#SVGID_68_);}
	.st69{fill:url(#SVGID_69_);}
	.st70{fill:url(#SVGID_70_);}
	.st71{fill:url(#SVGID_71_);}
	.st72{fill:url(#SVGID_72_);}
	.st73{fill:url(#SVGID_73_);}
	.st74{fill:url(#SVGID_74_);}
	.st75{fill:url(#SVGID_75_);}
	.st76{fill:url(#SVGID_76_);}
	.st77{fill:url(#SVGID_77_);}
	.st78{fill:url(#SVGID_78_);}
	.st79{fill:url(#SVGID_79_);}
	.st80{fill:url(#SVGID_80_);}
	.st81{fill:url(#SVGID_81_);}
	.st82{fill:url(#SVGID_82_);}
	.st83{fill:url(#SVGID_83_);}
	.st84{fill:url(#SVGID_84_);}
	.st85{fill:url(#SVGID_85_);}
	.st86{fill:url(#SVGID_86_);}
	.st87{fill:url(#SVGID_87_);}
	.st88{fill:url(#SVGID_88_);}
	.st89{fill:url(#SVGID_89_);}
	.st90{fill:url(#SVGID_90_);}
	.st91{clip-path:url(#SVGID_92_);}
	.st92{fill:url(#SVGID_93_);}
	.st93{fill:#808285;}
	.st94{fill:url(#SVGID_94_);}
	.st95{fill:url(#SVGID_95_);}
	.st96{fill:url(#SVGID_96_);}
	.st97{fill:url(#SVGID_97_);}
	.st98{fill:url(#SVGID_98_);}
	.st99{fill:url(#SVGID_99_);}
	.st100{fill:url(#SVGID_100_);}
	.st101{fill:url(#SVGID_101_);}
	.st102{fill:url(#SVGID_102_);}
	.st103{fill:url(#SVGID_103_);}
	.st104{fill:url(#SVGID_104_);}
	.st105{fill:url(#SVGID_105_);}
	.st106{fill:url(#SVGID_106_);}
	.st107{fill:url(#SVGID_107_);}
	.st108{fill:url(#SVGID_108_);}
	.st109{fill:url(#SVGID_109_);}
	.st110{fill:url(#SVGID_110_);}
	.st111{fill:url(#SVGID_111_);}
	.st112{fill:url(#SVGID_112_);}
	.st113{fill:url(#SVGID_113_);}
	.st114{fill:url(#SVGID_114_);}
	.st115{opacity:0.25;fill:url(#SVGID_115_);}
	.st116{fill:url(#SVGID_116_);}
	.st117{fill:url(#SVGID_117_);}
	.st118{opacity:0.2;fill:url(#SVGID_118_);}
	.st119{fill:none;}
	.st120{opacity:0.15;fill:url(#SVGID_119_);}
	.st121{opacity:0.5;fill:url(#SVGID_120_);}
	.st122{fill:url(#SVGID_121_);}
	.st123{opacity:3.000000e-02;fill:none;stroke:#FFFFFF;stroke-width:2;stroke-miterlimit:10;}
	.st124{opacity:0.5;fill:url(#SVGID_122_);}
	.st125{fill:url(#SVGID_123_);}
	.st126{fill:url(#SVGID_124_);}
	.st127{fill:url(#SVGID_125_);}
	.st128{fill:url(#SVGID_126_);}
	.st129{fill:url(#SVGID_127_);}
</style>
	<linearGradient id="af" x1="395.78" x2="395.78" y2="612" gradientUnits="userSpaceOnUse">
		<stop stop-color="#003F61" offset="0"/>
		<stop stop-color="#005B87" offset=".2615"/>
		<stop stop-color="#007BB2" offset=".6436"/>
		<stop stop-color="#D8D3E9" offset="1"/>
	</linearGradient>
	<polygon class="st0" points="791.8 612 179.8 612 -0.2 612 -0.2 0 791.8 0"/>
	<linearGradient id="ag" x1="396" x2="396" y2="612" gradientUnits="userSpaceOnUse">
		<stop stop-color="#005B87" offset=".0051082"/>
		<stop stop-color="#007BB2" offset=".1564"/>
		<stop stop-color="#74B2E0" offset=".5307"/>
		<stop stop-color="#D8D3E9" offset="1"/>
	</linearGradient>
	<polygon class="st1" points="792.2 612 179.9 612 -0.2 612 -0.2 0 792.2 0"/>
	<linearGradient id="ah" x1="395.78" x2="395.78" y1="72" y2="611.78" gradientUnits="userSpaceOnUse">
		<stop stop-color="#D3D1E9" offset="0"/>
		<stop stop-color="#2F3948" offset=".6923"/>
		<stop stop-color="#212A37" offset="1"/>
	</linearGradient>
	<polygon class="st2" points="395.8 72 125.9 611.8 665.7 611.8"/>
	<linearGradient id="ai" x1="261.06" x2="261.06" y1="72" y2="611.78" gradientUnits="userSpaceOnUse">
		<stop stop-color="#DDD4E9" offset="0"/>
		<stop stop-color="#4E5C70" offset=".6871"/>
		<stop stop-color="#364151" offset="1"/>
	</linearGradient>
	<path class="st3" d="M395.8,611.8c1-2.8,0-539.8,0-539.8L125.9,611.8H395.8z"/>
	<linearGradient id="aj" x1="173.28" x2="173.28" y1="264.78" y2="612" gradientUnits="userSpaceOnUse">
		<stop stop-color="#D3D1E9" offset="0"/>
		<stop stop-color="#2F3948" offset=".6923"/>
		<stop stop-color="#212A37" offset="1"/>
	</linearGradient>
	<polyline class="st4" points="173.3 612 173.3 264.8 -0.2 611.8 173.3 264.8 346.8 611.8"/>
	<linearGradient id="ak" x1="618.28" x2="618.28" y1="264.78" y2="612" gradientUnits="userSpaceOnUse">
		<stop stop-color="#D3D1E9" offset="0"/>
		<stop stop-color="#2F3948" offset=".6923"/>
		<stop stop-color="#212A37" offset="1"/>
	</linearGradient>
	<polyline class="st5" points="618.3 612 618.3 264.8 444.8 611.8 618.3 264.8 791.8 611.8"/>
		<linearGradient id="al" x1="-1522.3" x2="-1522.3" y1="264.78" y2="612" gradientTransform="matrix(-1 0 0 1 -1349 0)" gradientUnits="userSpaceOnUse">
		<stop stop-color="#DDD4E9" offset="0"/>
		<stop stop-color="#465365" offset=".6974"/>
		<stop stop-color="#343F4F" offset="1"/>
	</linearGradient>
	<polyline class="st6" points="-0.2 611.8 173.3 264.8 346.8 611.8 173.3 264.8 173.3 612"/>
		<linearGradient id="am" x1="-1967.3" x2="-1967.3" y1="264.78" y2="612" gradientTransform="matrix(-1 0 0 1 -1349 0)" gradientUnits="userSpaceOnUse">
		<stop stop-color="#DBD3E9" offset="0"/>
		<stop stop-color="#465365" offset=".6974"/>
		<stop stop-color="#343F4F" offset="1"/>
	</linearGradient>
	<polyline class="st7" points="618.3 612 618.3 264.8 791.8 611.8 618.3 264.8 444.8 611.8"/>
	<linearGradient id="x" x1="145.28" x2="145.28" y1="264.78" y2="415.53" gradientUnits="userSpaceOnUse">
		<stop stop-color="#fff" offset=".0051082"/>
		<stop stop-color="#9AB3D4" offset="1"/>
	</linearGradient>
	<path d="m155.3 341.9s-38.7 36.3-38 34.9l56-112s0 153.2-0.5 150.7-17.5-73.6-17.5-73.6z" fill="url(#x)"/>
		<linearGradient id="y" x1="-1606.3" x2="-1606.3" y1="265.51" y2="416.27" gradientTransform="matrix(-1 0 0 1 -1405 0)" gradientUnits="userSpaceOnUse">
		<stop stop-color="#E0E1E2" offset=".0051082"/>
		<stop stop-color="#9AB3D4" offset="1"/>
	</linearGradient>
	<path class="st9" d="m191.3 342.6s38.7 36.3 38 34.9-56-112-56-112 0 153.2 0.5 150.7 17.5-73.6 17.5-73.6z"/>
	<linearGradient id="z" x1="590.28" x2="590.28" y1="264.78" y2="415.53" gradientUnits="userSpaceOnUse">
		<stop stop-color="#fff" offset=".0051082"/>
		<stop stop-color="#9AB3D4" offset="1"/>
	</linearGradient>
	<path class="st10" d="m600.3 341.9s-38.7 36.3-38 34.9 56-112 56-112 0 153.2-0.5 150.7-17.5-73.6-17.5-73.6z"/>
		<linearGradient id="aa" x1="-2051.3" x2="-2051.3" y1="265.51" y2="416.27" gradientTransform="matrix(-1 0 0 1 -1405 0)" gradientUnits="userSpaceOnUse">
		<stop stop-color="#E0E1E2" offset=".0051082"/>
		<stop stop-color="#9AB3D4" offset="1"/>
	</linearGradient>
	<path class="st11" d="m636.3 342.6s38.7 36.3 38 34.9-56-112-56-112 0 153.2 0.5 150.7 17.5-73.6 17.5-73.6z"/>
	<linearGradient id="ab" x1="338.14" x2="338.14" y1="72" y2="302.4" gradientUnits="userSpaceOnUse">
		<stop stop-color="#fff" offset=".0051082"/>
		<stop stop-color="#BCC1DC" offset="1"/>
	</linearGradient>
	<path class="st12" d="m280.5 302.4l61.2-85.4s4 21 5 18 22-65 22-65l10 87s16.8-78 17-81 0-104 0-104l-115.2 230.4z"/>
		<linearGradient id="ac" x1="-1472.7" x2="-1472.7" y1="72" y2="302.4" gradientTransform="matrix(-1 0 0 1 -1019.3 0)" gradientUnits="userSpaceOnUse">
		<stop stop-color="#E0E1E2" offset=".0051082"/>
		<stop stop-color="#9AB3D4" offset="1"/>
	</linearGradient>
	<path class="st13" d="m511.1 302.4l-61.2-85.4s-4 21-5 18-22-65-22-65l-10 87s-16.8-78-17-81 0-104 0-104l115.2 230.4z"/>
	<linearGradient id="ad" x1="197.78" x2="197.78" y1="545.38" y2="611.78" gradientUnits="userSpaceOnUse">
		<stop stop-color="#BDC4E0" offset="0"/>
		<stop stop-color="#556478" offset=".9949"/>
	</linearGradient>
	<path class="st14" d="m-0.2 584.8v27s396 0 396 0v-66.4c-56.4 0.2-125.1 2.7-202 10.4-76.7 7.6-141.9 18.4-194 29z"/>
		<linearGradient id="u" x1="-1894.2" x2="-1894.2" y1="545.38" y2="611.78" gradientTransform="matrix(-1 0 0 1 -1300 0)" gradientUnits="userSpaceOnUse">
		<stop stop-color="#A6ADC6" offset="0"/>
		<stop stop-color="#3D4959" offset=".9949"/>
	</linearGradient>
	<path d="m792.2 584.8v27s-396 0-396 0v-66.4c56.4 0.2 125.1 2.7 202 10.4 76.7 7.6 141.9 18.4 194 29z" fill="url(#u)"/>
	<radialGradient id="v" cx="173.28" cy="148.12" r="35.07" gradientUnits="userSpaceOnUse">
		<stop stop-color="#F9ED32" offset=".0051282"/>
		<stop stop-color="#fff" offset="1"/>
	</radialGradient>
	<circle cx="173.3" cy="148.1" r="35.1" fill="url(#v)"/>
	<radialGradient id="w" cx="618.28" cy="148.12" r="35.07" gradientUnits="userSpaceOnUse">
		<stop stop-color="#A7A9AC" offset=".0051282"/>
		<stop stop-color="#fff" offset="1"/>
	</radialGradient>
	<path d="m618.3 148.1c-12.8-15.1 0.6-35.1 0.6-35.1h-0.6c-19.2 0-35.1 15.8-35.1 35.1s15.8 35.1 35.1 35.1 35.1-15.8 35.1-35.1c-0.1 0-22.3 15.1-35.1 0z" display="none" fill="url(#w)"/>
		<defs>
			<rect id="an" x="-847.6" y="668" width="791.6" height="612"/>
		</defs>
		<clipPath id="ae">
			<use xlink:href="#an"/>
		</clipPath>
</svg>
